<?xml version="1.0" encoding="utf-8"?>
<!-- Generator: Adobe Illustrator 22.0.1, SVG Export Plug-In . SVG Version: 6.00 Build 0)  -->
<svg version="1.1" id="Layer_1" xmlns="http://www.w3.org/2000/svg" xmlns:xlink="http://www.w3.org/1999/xlink" x="0px" y="0px"
	 viewBox="0 0 100.2 71.4" style="enable-background:new 0 0 100.2 71.4;" xml:space="preserve">
<style type="text/css">
	.st0{fill:url(#SVGID_1_);}
	.st1{fill:url(#SVGID_2_);}
	.st2{fill:url(#SVGID_3_);}
	.st3{fill:url(#SVGID_4_);stroke:#FFFFFF;stroke-width:2;}
	.st4{fill:url(#SVGID_5_);}
	.st5{fill:#1C3E58;}
	.st6{fill:#00ADEE;}
	.st7{fill:#25AE99;}
</style>
<g>
	<g>
		<linearGradient id="SVGID_1_" gradientUnits="userSpaceOnUse" x1="0" y1="30.1338" x2="58.9087" y2="30.1338">
			<stop  offset="0" style="stop-color:#EE3242"/>
			<stop  offset="0.3722" style="stop-color:#E94897"/>
		</linearGradient>
		<path class="st0" d="M0.2,57.1L27.8,2c0.3-0.6,0.8-1,1.6-1c0.7,0,1.3,0.3,1.6,1l27.6,55.2c0.3,0.6,0.4,1.1,0.1,1.5
			c-0.2,0.4-0.7,0.6-1.4,0.6h-7.2c-0.7,0-1.4-0.2-2.1-0.6c-0.7-0.4-1.2-1-1.4-1.6l-2.4-4.8c-0.3-0.6-0.8-1.1-1.5-1.5
			c-0.7-0.4-1.3-0.6-2-0.6H18.1c-0.7,0-1.4,0.2-2.1,0.6c-0.7,0.4-1.2,1-1.4,1.6L12.3,57c-0.3,0.6-0.8,1.2-1.5,1.6
			c-0.7,0.4-1.3,0.6-2,0.6H1.6c-0.7,0-1.2-0.2-1.4-0.6C-0.1,58.2-0.1,57.7,0.2,57.1z M23.5,40.4h11.8c0.7,0,1.2-0.2,1.4-0.7
			c0.2-0.5,0.2-1,0-1.6L30.5,25c-0.3-0.6-0.6-1-1-1c-0.4,0-0.8,0.3-1,1l-6.3,13.1c-0.3,0.6-0.3,1.2,0,1.6
			C22.4,40.2,22.8,40.4,23.5,40.4z"/>
		<linearGradient id="SVGID_2_" gradientUnits="userSpaceOnUse" x1="46.5133" y1="30.1338" x2="100.2035" y2="30.1338">
			<stop  offset="0" style="stop-color:#28BAA8"/>
			<stop  offset="1" style="stop-color:#00ADEE"/>
		</linearGradient>
		<path class="st1" d="M99.9,46.4c-0.5,0.7-1,1.4-1.6,2.1c-0.5,0.7-1.1,1.3-1.7,2c-1.7,1.8-3.7,3.4-6,4.7c-1.1,0.7-2.2,1.3-3.4,1.8
			c-1.2,0.5-2.4,0.9-3.7,1.3c-2.6,0.7-5.2,1.1-7.8,1.1c-4,0-7.8-0.8-11.3-2.3c-3.5-1.5-6.6-3.6-9.3-6.3c-2.6-2.6-4.7-5.7-6.2-9.2
			c-1.5-3.5-2.3-7.3-2.3-11.3c0-4,0.8-7.8,2.3-11.3c1.5-3.5,3.6-6.6,6.2-9.3c2.7-2.6,5.8-4.7,9.3-6.2C67.9,1.8,71.6,1,75.6,1
			c2.6,0,5.2,0.4,7.8,1.1c2.6,0.7,4.9,1.7,7.1,3c1.1,0.7,2.2,1.4,3.2,2.2c1,0.8,1.9,1.6,2.8,2.5c1.3,1.3,2.4,2.7,3.3,4.1
			c0.4,0.6,0.4,1.1,0.2,1.7c-0.2,0.5-0.6,0.9-1.2,1.2L93.2,19c-0.6,0.3-1.2,0.3-1.9,0.1c-0.7-0.2-1.2-0.5-1.7-1
			c-0.3-0.3-0.5-0.5-0.8-0.8c-0.3-0.3-0.5-0.6-0.8-0.8c-0.6-0.6-1.1-1.1-1.7-1.5c-0.6-0.5-1.2-0.9-1.9-1.3c-0.7-0.4-1.4-0.8-2.1-1.1
			c-0.7-0.3-1.4-0.6-2.2-0.8c-1.5-0.5-3-0.7-4.6-0.7c-2.5,0-4.9,0.5-7.2,1.5c-2.3,1.1-4.2,2.5-5.8,4.2c-1.6,1.8-2.9,3.8-3.9,6.1
			c-1,2.3-1.5,4.7-1.5,7.3c0,2.6,0.5,5,1.5,7.3c1,2.3,2.3,4.3,3.9,6.1c1.6,1.8,3.5,3.2,5.8,4.2c2.2,1.1,4.6,1.6,7.2,1.6
			c1.6,0,3.1-0.2,4.6-0.7c0.7-0.3,1.4-0.5,2.2-0.8c0.7-0.3,1.4-0.7,2.1-1.1c0.7-0.4,1.3-0.9,1.9-1.3c0.6-0.5,1.2-1,1.7-1.6
			c0.3-0.3,0.5-0.5,0.8-0.8c0.3-0.3,0.5-0.5,0.8-0.8c0.4-0.5,1-0.9,1.7-1.1c0.7-0.2,1.3-0.2,1.9,0.1l5.7,2.3c0.6,0.3,1,0.7,1.2,1.2
			C100.3,45.2,100.2,45.8,99.9,46.4z"/>
		<linearGradient id="SVGID_3_" gradientUnits="userSpaceOnUse" x1="38.5501" y1="20.8608" x2="62.8284" y2="20.8608">
			<stop  offset="0" style="stop-color:#28BAA8"/>
			<stop  offset="1" style="stop-color:#00ADEE"/>
		</linearGradient>
		<path class="st2" d="M41,30.9c-0.7,0-1.3-0.2-1.8-0.7s-0.7-1.1-0.7-1.8v-15c0-0.7,0.2-1.3,0.7-1.8s1.1-0.7,1.8-0.7h12.9
			c1.9,0,3.5,0.4,4.7,1.1c1.2,0.7,2.1,1.6,2.7,2.7c0.3,0.5,0.5,1.1,0.7,1.6c0.2,0.6,0.4,1.1,0.5,1.7c0.2,1.1,0.3,2.1,0.3,3
			c0,1.8-0.3,3.2-0.8,4.3c-0.6,1.2-1.3,2.2-2.1,3s-1.8,1.4-2.9,1.8c-1.1,0.4-2.1,0.6-3.1,0.6H41z"/>
		<linearGradient id="SVGID_4_" gradientUnits="userSpaceOnUse" x1="27.4065" y1="30.1338" x2="74.9725" y2="30.1338">
			<stop  offset="0.2542" style="stop-color:#6ECACC"/>
			<stop  offset="0.3142" style="stop-color:#5DC6C3"/>
			<stop  offset="0.4228" style="stop-color:#46C1B7"/>
			<stop  offset="0.5389" style="stop-color:#35BDAF"/>
			<stop  offset="0.6668" style="stop-color:#2BBBA9"/>
			<stop  offset="0.8292" style="stop-color:#28BAA8"/>
		</linearGradient>
		<path class="st3" d="M74.5,56.6c-1.9-2.7-3.8-5.2-5.5-7.5c-1.8-2.4-3.6-4.9-5.6-7.5C63,41.1,62.8,40.5,63,40
			c0.2-0.6,0.5-1,1.1-1.3c2.7-1.5,4.9-3.5,6.6-6c2.2-3.2,3.3-7,3.3-11.5c0-2.9-0.5-5.6-1.4-8.1c-0.5-1.2-1.1-2.4-1.8-3.4
			c-0.7-1.1-1.5-2-2.4-2.9c-1.8-1.7-3.8-3.1-6.3-4.1c-2.5-1-5.2-1.4-8.2-1.4h-24c-0.7,0-1.3,0.2-1.8,0.7s-0.7,1.1-0.7,1.8v53.3
			c0,0.7,0.2,1.3,0.7,1.8c0.5,0.5,1.1,0.7,1.8,0.7h4.3h2h15.7h3.6h10.1h1h7.1c0.7,0,1.1-0.3,1.3-0.9C75.1,57.8,75,57.2,74.5,56.6z
			 M41,30.9c-0.7,0-1.3-0.2-1.8-0.7s-0.7-1.1-0.7-1.8v-15c0-0.7,0.2-1.3,0.7-1.8s1.1-0.7,1.8-0.7h12.9c1.9,0,3.5,0.4,4.7,1.1
			c1.2,0.7,2.1,1.6,2.7,2.7c0.3,0.5,0.5,1.1,0.7,1.6c0.2,0.6,0.4,1.1,0.5,1.7c0.2,1.1,0.3,2.1,0.3,3c0,1.8-0.3,3.2-0.8,4.3
			c-0.6,1.2-1.3,2.2-2.1,3s-1.8,1.4-2.9,1.8c-1.1,0.4-2.1,0.6-3.1,0.6H41z"/>
		<linearGradient id="SVGID_5_" gradientUnits="userSpaceOnUse" x1="27.4065" y1="30.1338" x2="74.9725" y2="30.1338">
			<stop  offset="0.2542" style="stop-color:#6ECACC"/>
			<stop  offset="0.3142" style="stop-color:#5DC6C3"/>
			<stop  offset="0.4228" style="stop-color:#46C1B7"/>
			<stop  offset="0.5389" style="stop-color:#35BDAF"/>
			<stop  offset="0.6668" style="stop-color:#2BBBA9"/>
			<stop  offset="0.8292" style="stop-color:#28BAA8"/>
		</linearGradient>
		<path class="st4" d="M74.5,56.6c-1.9-2.7-3.8-5.2-5.5-7.5c-1.8-2.4-3.6-4.9-5.6-7.5C63,41.1,62.8,40.5,63,40
			c0.2-0.6,0.5-1,1.1-1.3c2.7-1.5,4.9-3.5,6.6-6c2.2-3.2,3.3-7,3.3-11.5c0-2.9-0.5-5.6-1.4-8.1c-0.5-1.2-1.1-2.4-1.8-3.4
			c-0.7-1.1-1.5-2-2.4-2.9c-1.8-1.7-3.8-3.1-6.3-4.1c-2.5-1-5.2-1.4-8.2-1.4h-24c-0.7,0-1.3,0.2-1.8,0.7s-0.7,1.1-0.7,1.8v53.3
			c0,0.7,0.2,1.3,0.7,1.8c0.5,0.5,1.1,0.7,1.8,0.7h4.3h2h15.7h3.6h10.1h1h7.1c0.7,0,1.1-0.3,1.3-0.9C75.1,57.8,75,57.2,74.5,56.6z"
			/>
	</g>
	<g>
		<path class="st5" d="M0,70.9l3.9-7.8C4,63,4,63,4.2,63c0.1,0,0.2,0,0.2,0.1l3.9,7.8c0,0.1,0.1,0.2,0,0.2c0,0.1-0.1,0.1-0.2,0.1h-1
			c-0.1,0-0.2,0-0.3-0.1c-0.1-0.1-0.2-0.1-0.2-0.2l-0.3-0.7c0-0.1-0.1-0.2-0.2-0.2c-0.1-0.1-0.2-0.1-0.3-0.1H2.6
			c-0.1,0-0.2,0-0.3,0.1c-0.1,0.1-0.2,0.1-0.2,0.2l-0.3,0.7c0,0.1-0.1,0.2-0.2,0.2c-0.1,0.1-0.2,0.1-0.3,0.1h-1
			c-0.1,0-0.2,0-0.2-0.1C0,71.1,0,71,0,70.9z M3.3,68.5H5c0.1,0,0.2,0,0.2-0.1c0-0.1,0-0.1,0-0.2l-0.9-1.9c0-0.1-0.1-0.1-0.1-0.1
			c-0.1,0-0.1,0-0.1,0.1l-0.9,1.9c0,0.1,0,0.2,0,0.2C3.2,68.5,3.2,68.5,3.3,68.5z"/>
		<path class="st5" d="M10.2,71.2H9.3c-0.1,0-0.2,0-0.2-0.1C9,71,9,71,9,70.9v-7.5c0-0.1,0-0.2,0.1-0.2C9.1,63,9.2,63,9.3,63h3.4
			c0.4,0,0.8,0.1,1.2,0.2c0.3,0.1,0.6,0.3,0.9,0.6c0.1,0.1,0.2,0.3,0.3,0.4c0.1,0.1,0.2,0.3,0.2,0.5c0.1,0.4,0.2,0.7,0.2,1.1
			c0,0.6-0.2,1.2-0.5,1.6c-0.2,0.4-0.6,0.6-0.9,0.9c-0.1,0-0.1,0.1-0.2,0.2c0,0.1,0,0.2,0.1,0.2c0.3,0.4,0.5,0.7,0.8,1.1
			c0.3,0.3,0.5,0.7,0.8,1.1c0.1,0.1,0.1,0.2,0.1,0.2c0,0.1-0.1,0.1-0.2,0.1h-1.1c-0.1,0-0.2,0-0.3-0.1c-0.1-0.1-0.2-0.1-0.2-0.2
			c-0.1-0.2-0.3-0.3-0.4-0.5c-0.1-0.2-0.2-0.3-0.4-0.5l-0.7-1c-0.1-0.1-0.1-0.1-0.2-0.2c-0.1-0.1-0.2-0.1-0.3-0.1h-0.9
			c-0.1,0-0.2,0-0.2,0.1c-0.1,0.1-0.1,0.1-0.1,0.2v1.9c0,0.1,0,0.2-0.1,0.2C10.4,71.2,10.3,71.2,10.2,71.2z M10.9,67.2h1.8
			c0.1,0,0.3,0,0.4-0.1c0.2-0.1,0.3-0.1,0.4-0.3c0.1-0.1,0.2-0.3,0.3-0.4c0.1-0.2,0.1-0.4,0.1-0.6c0-0.1,0-0.3,0-0.4
			c0-0.1,0-0.2-0.1-0.2c0-0.1-0.1-0.2-0.1-0.2c-0.1-0.1-0.2-0.3-0.4-0.4c-0.2-0.1-0.4-0.2-0.7-0.2h-1.8c-0.1,0-0.2,0-0.2,0.1
			c-0.1,0.1-0.1,0.1-0.1,0.2v2.1c0,0.1,0,0.2,0.1,0.2C10.7,67.2,10.8,67.2,10.9,67.2z"/>
		<path class="st5" d="M24.4,69.5c-0.1,0.1-0.2,0.2-0.2,0.3c-0.1,0.1-0.2,0.2-0.3,0.3c-0.2,0.3-0.5,0.5-0.9,0.7
			c-0.2,0.1-0.3,0.2-0.5,0.3c-0.2,0.1-0.4,0.1-0.5,0.2c-0.4,0.1-0.8,0.2-1.1,0.2c-0.6,0-1.1-0.1-1.7-0.3c-0.5-0.2-1-0.5-1.4-0.9
			c-0.4-0.4-0.7-0.8-0.9-1.3c-0.2-0.5-0.3-1.1-0.3-1.7s0.1-1.1,0.3-1.7c0.2-0.5,0.5-1,0.9-1.4c0.4-0.4,0.9-0.7,1.4-0.9
			c0.5-0.2,1.1-0.3,1.7-0.3c0.4,0,0.8,0.1,1.1,0.2c0.4,0.1,0.7,0.3,1,0.4c0.2,0.1,0.3,0.2,0.5,0.3c0.1,0.1,0.3,0.2,0.4,0.4
			c0.2,0.2,0.3,0.4,0.5,0.6c0.1,0.1,0.1,0.2,0,0.2c0,0.1-0.1,0.1-0.2,0.2l-0.8,0.3c-0.1,0-0.2,0-0.3,0s-0.2-0.1-0.2-0.2
			c0,0-0.1-0.1-0.1-0.1c0,0-0.1-0.1-0.1-0.1c-0.1-0.1-0.2-0.2-0.3-0.2c-0.1-0.1-0.2-0.1-0.3-0.2c-0.1-0.1-0.2-0.1-0.3-0.2
			c-0.1,0-0.2-0.1-0.3-0.1c-0.2-0.1-0.4-0.1-0.7-0.1c-0.4,0-0.7,0.1-1.1,0.2c-0.3,0.2-0.6,0.4-0.8,0.6c-0.2,0.3-0.4,0.6-0.6,0.9
			c-0.1,0.3-0.2,0.7-0.2,1.1c0,0.4,0.1,0.7,0.2,1.1c0.1,0.3,0.3,0.6,0.6,0.9c0.2,0.3,0.5,0.5,0.8,0.6c0.3,0.2,0.7,0.2,1.1,0.2
			c0.2,0,0.5,0,0.7-0.1c0.1,0,0.2-0.1,0.3-0.1c0.1,0,0.2-0.1,0.3-0.2c0.1-0.1,0.2-0.1,0.3-0.2c0.1-0.1,0.2-0.1,0.3-0.2
			c0,0,0.1-0.1,0.1-0.1s0.1-0.1,0.1-0.1c0.1-0.1,0.1-0.1,0.2-0.2c0.1,0,0.2,0,0.3,0l0.8,0.3c0.1,0,0.1,0.1,0.2,0.2
			C24.5,69.3,24.5,69.4,24.4,69.5z"/>
		<path class="st5" d="M33,63.3v7.5c0,0.1,0,0.2-0.1,0.2c-0.1,0.1-0.1,0.1-0.2,0.1h-0.9c-0.1,0-0.2,0-0.2-0.1
			c-0.1-0.1-0.1-0.1-0.1-0.2v-2.6c0-0.1,0-0.2-0.1-0.2c-0.1-0.1-0.1-0.1-0.2-0.1h-3.4c-0.1,0-0.2,0-0.2,0.1
			c-0.1,0.1-0.1,0.1-0.1,0.2v2.6c0,0.1,0,0.2-0.1,0.2c-0.1,0.1-0.1,0.1-0.2,0.1h-0.9c-0.1,0-0.2,0-0.2-0.1c-0.1-0.1-0.1-0.1-0.1-0.2
			v-7.5c0-0.1,0-0.2,0.1-0.2C26,63,26,63,26.1,63H27c0.1,0,0.2,0,0.2,0.1c0.1,0.1,0.1,0.1,0.1,0.2v2.9c0,0.1,0,0.2,0.1,0.2
			c0.1,0.1,0.1,0.1,0.2,0.1h3.4c0.1,0,0.2,0,0.2-0.1c0.1-0.1,0.1-0.1,0.1-0.2v-2.9c0-0.1,0-0.2,0.1-0.2c0.1-0.1,0.1-0.1,0.2-0.1h0.9
			c0.1,0,0.2,0,0.2,0.1C33,63.2,33,63.2,33,63.3z"/>
		<path class="st5" d="M36.2,71.2h-0.9c-0.1,0-0.2,0-0.2-0.1C35,71,35,71,35,70.9v-7.5c0-0.1,0-0.2,0.1-0.2c0.1-0.1,0.1-0.1,0.2-0.1
			h0.9c0.1,0,0.2,0,0.2,0.1c0.1,0.1,0.1,0.1,0.1,0.2v7.5c0,0.1,0,0.2-0.1,0.2C36.4,71.2,36.3,71.2,36.2,71.2z"/>
		<path class="st5" d="M48.2,63.3l-2.8,7.8c0,0.1-0.1,0.1-0.2,0.1c-0.1,0-0.2,0-0.2-0.1l-1.9-4.4c0-0.1-0.1-0.1-0.1-0.1
			c-0.1,0-0.1,0-0.1,0.1l-2,4.3c0,0.1-0.1,0.1-0.2,0.1c-0.1,0-0.2,0-0.2-0.1l-2.8-7.7c0-0.1,0-0.2,0-0.2c0-0.1,0.1-0.1,0.2-0.1h1
			c0.1,0,0.2,0,0.3,0.1c0.1,0.1,0.1,0.1,0.2,0.2l1.4,3.9c0,0.1,0.1,0.1,0.1,0.1c0.1,0,0.1,0,0.1-0.1l1.8-4.1c0-0.1,0.1-0.1,0.2-0.1
			c0.1,0,0.2,0,0.2,0.1l1.8,4.1c0,0.1,0.1,0.1,0.1,0.1s0.1,0,0.1-0.1l1.4-3.9c0-0.1,0.1-0.2,0.2-0.2C46.9,63,46.9,63,47,63h1
			c0.1,0,0.2,0,0.2,0.1C48.3,63.2,48.3,63.2,48.2,63.3z"/>
		<path class="st5" d="M51.5,71.1c-0.4-0.2-0.8-0.4-1.1-0.7c-0.3-0.3-0.6-0.7-0.7-1.1c-0.2-0.4-0.2-0.9-0.2-1.4v-4.6
			c0-0.1,0-0.2,0.1-0.2c0.1-0.1,0.1-0.1,0.2-0.1h0.9c0.1,0,0.2,0,0.2,0.1c0.1,0.1,0.1,0.1,0.1,0.2v4.5c0,0.4,0.1,0.8,0.2,1
			c0.1,0.3,0.3,0.5,0.5,0.6c0.2,0.2,0.4,0.3,0.6,0.3c0.1,0,0.2,0.1,0.3,0.1c0.1,0,0.2,0,0.3,0c0.2,0,0.4,0,0.6-0.1
			c0.2-0.1,0.4-0.2,0.6-0.3c0.2-0.2,0.4-0.4,0.5-0.6c0.1-0.3,0.2-0.6,0.2-1v-4.5c0-0.1,0-0.2,0.1-0.2C55,63,55.1,63,55.2,63h0.9
			c0.1,0,0.2,0,0.2,0.1c0.1,0.1,0.1,0.1,0.1,0.2v4.6c0,0.3,0,0.5-0.1,0.7c0,0.2-0.1,0.5-0.2,0.7c-0.2,0.4-0.4,0.8-0.7,1.1
			c-0.3,0.3-0.7,0.5-1.1,0.7c-0.4,0.2-0.9,0.2-1.5,0.2S51.9,71.3,51.5,71.1z"/>
		<path class="st5" d="M66.5,63.2v7.7c0,0.1,0,0.2-0.1,0.2c-0.1,0.1-0.1,0.1-0.2,0.1h-0.9c-0.1,0-0.2,0-0.2-0.1
			C65,71,64.9,71,64.9,70.9v-3.5c0-0.1,0-0.2-0.1-0.2c0,0-0.1,0-0.2,0.1l-2.1,2.6c-0.1,0.1-0.1,0.1-0.2,0.1s-0.2,0-0.2-0.1L60,67.3
			c-0.1-0.1-0.1-0.1-0.2-0.1c0,0-0.1,0.1-0.1,0.2v3.5c0,0.1,0,0.2-0.1,0.2c-0.1,0.1-0.1,0.1-0.2,0.1h-0.9c-0.1,0-0.2,0-0.2-0.1
			c-0.1-0.1-0.1-0.1-0.1-0.2v-7.7c0-0.1,0-0.2,0.1-0.2c0.1,0,0.2,0,0.2,0.1l3.6,4.4c0.1,0.1,0.1,0.1,0.2,0.1c0.1,0,0.2,0,0.2-0.1
			l3.6-4.4c0.1-0.1,0.1-0.1,0.2-0.1C66.5,63,66.5,63.1,66.5,63.2z"/>
		<path class="st6" d="M69.4,70.5c0,0.2-0.1,0.4-0.2,0.6c-0.2,0.2-0.4,0.2-0.6,0.2c-0.2,0-0.4-0.1-0.6-0.2c-0.2-0.2-0.2-0.4-0.2-0.6
			c0-0.2,0.1-0.4,0.2-0.6c0.2-0.2,0.4-0.2,0.6-0.2c0.2,0,0.4,0.1,0.6,0.2C69.3,70.1,69.4,70.2,69.4,70.5z"/>
		<path class="st6" d="M71.9,71.2H71c-0.1,0-0.2,0-0.2-0.1c-0.1-0.1-0.1-0.1-0.1-0.2v-7.5c0-0.1,0-0.2,0.1-0.2C70.9,63,71,63,71,63
			h0.9c0.1,0,0.2,0,0.2,0.1c0.1,0.1,0.1,0.1,0.1,0.2v7.5c0,0.1,0,0.2-0.1,0.2C72.1,71.2,72,71.2,71.9,71.2z"/>
		<path class="st6" d="M78.1,71.4c-0.6,0-1.1-0.1-1.7-0.3c-0.5-0.2-1-0.5-1.4-0.9c-0.4-0.4-0.7-0.8-0.9-1.4
			c-0.2-0.5-0.3-1.1-0.3-1.7c0-0.6,0.1-1.1,0.3-1.7c0.2-0.5,0.5-1,0.9-1.4c0.4-0.4,0.8-0.7,1.4-0.9c0.5-0.2,1.1-0.3,1.7-0.3
			c0.6,0,1.1,0.1,1.7,0.3c0.5,0.2,1,0.5,1.4,0.9c0.4,0.4,0.7,0.8,0.9,1.4c0.2,0.5,0.3,1.1,0.3,1.7c0,0.6-0.1,1.1-0.3,1.7
			c-0.2,0.5-0.5,1-0.9,1.4c-0.4,0.4-0.8,0.7-1.4,0.9C79.3,71.3,78.7,71.4,78.1,71.4z M78.2,64.3c-0.4,0-0.7,0.1-1,0.2
			c-0.3,0.2-0.6,0.4-0.9,0.6c-0.2,0.3-0.4,0.6-0.6,0.9c-0.1,0.3-0.2,0.7-0.2,1.1c0,0.4,0.1,0.7,0.2,1.1c0.1,0.3,0.3,0.6,0.6,0.9
			c0.2,0.3,0.5,0.5,0.9,0.6c0.3,0.2,0.7,0.2,1,0.2c0.4,0,0.7-0.1,1-0.2c0.3-0.2,0.6-0.4,0.9-0.6c0.2-0.3,0.4-0.6,0.6-0.9
			c0.1-0.3,0.2-0.7,0.2-1.1c0-0.4-0.1-0.7-0.2-1.1c-0.1-0.3-0.3-0.6-0.6-0.9c-0.2-0.3-0.5-0.5-0.9-0.6
			C78.9,64.4,78.5,64.3,78.2,64.3z"/>
	</g>
	<path class="st7" d="M56.6,30.4c1.2-0.5,2.2-1.3,3-2.2c0.4-0.5,0.7-1,1-1.5c0.3-0.6,0.5-1.1,0.7-1.7c0.4-1.1,0.6-2.4,0.6-3.8
		c0-1.3-0.2-2.6-0.7-4c-0.5-1.3-1.2-2.5-2.1-3.4c-0.8-1-2-1.8-3.3-2.5c-1.3-0.6-2.8-0.9-4.6-0.9H40c-0.7,0-1.3,0.2-1.7,0.7
		c-0.5,0.5-0.7,1.1-0.7,1.7v16c0,0.7,0.2,1.3,0.7,1.7c0.5,0.5,1.1,0.7,1.7,0.7h12.3C53.9,31.3,55.3,31,56.6,30.4z"/>
</g>
</svg>
